<svg fill="none" height="45" viewBox="0 0 97 45" width="97" xmlns="http://www.w3.org/2000/svg"><path d="m12.6523 29.3789c-.2343-.7266-.4687-1.3711-.7031-1.9336-.2109-.5625-.3984-1.043-.5625-1.4414-.914.3047-1.91014.5156-2.98826.6328 0 1.5.03515 2.7774.10547 3.8321.02343.6562.04687 1.2187.07031 1.6874.04687.4454.08203.8321.10547 1.1602.04687.3281.09375.6211.14062.8789.04688.2813.11719.5508.21094.8086-.46875.3516-.92578.6094-1.37109.7734-.42188.1641-.79688.2813-1.125.3516-.39844.0938-.75.1172-1.05469.0703-.11719-.3281-.22266-.6797-.31641-1.0547-.09375-.3515-.16406-.8437-.21094-1.4765-.02343-.6094-.03515-1.3946-.03515-2.3555s.03515-2.1914.10547-3.6914c.02344-.1641.03515-.3281.03515-.4922s.01172-.3281.03516-.4922c-.21094-.0234-.43359-.0469-.66797-.0703-.21094-.0234-.42187-.0469-.63281-.0703-.14063-.375-.23438-.7031-.28125-.9844-.04688-.3047-.07031-.5508-.07031-.7383 0-.2343.02343-.4218.07031-.5625.375.0703.75.1055 1.125.1055h.52734c.04688-.9844.09375-1.9805.14063-2.9883.04687-1.0312.08203-2.0273.10547-2.9883.04687-.9843.08203-1.9101.10546-2.7773.02344-.8906.04688-1.6992.07032-2.4258-.70313.4688-1.3125 1.0781-1.82813 1.8281-.51562.75-.86719 1.6172-1.05469 2.6016-.30468-.0469-.5625-.1875-.77343-.4219-.21094-.2578-.38672-.5156-.52735-.7734-.16406-.3047-.30468-.6445-.421871-1.0195-.117188-.4453-.117188-.8907 0-1.336.117191-.4687.292971-.9023.527341-1.3008.23438-.4218.50391-.7851.8086-1.0898.30468-.3281.59765-.5859.8789-.7734.49219-.3047.9961-.5743 1.51172-.8086.53906-.25784 1.13672-.46878 1.79297-.63284.25781-.25782.53906-.49219.84375-.70313.32813-.21094.63281-.33984.91406-.38672.39844-.09375.6211.15235.66797.73828.21094-.02343.4336-.03515.66797-.03515.23437-.02344.48045-.03516.73825-.03516.8907 0 1.8164.14063 2.7774.42188.9609.28125 1.8398.73824 2.6367 1.37104.8203.6094 1.4883 1.418 2.0039 2.4258.5156.9844.7734 2.1914.7734 3.6211 0 1.6172-.3867 3.1055-1.1601 4.4649-.75 1.3593-1.8281 2.4843-3.2344 3.375.1641.4218.375.9492.6328 1.582s.5156 1.3477.7735 2.1445c.375.9844.7734 1.9102 1.1953 2.7774.4453.8437.9023 1.582 1.3711 2.2148.4687.6328.9609 1.1367 1.4765 1.5117.5157.3985 1.0313.6328 1.5469.7032-.3047.4687-.6562.7968-1.0547.9843-.3984.1875-.7969.3047-1.1953.3516-.4453.0703-.9141.0703-1.4062 0-.6797-.1406-1.2657-.4687-1.7579-.9844-.4921-.5156-.9257-1.1367-1.3007-1.8633-.3516-.7265-.6797-1.5-.9844-2.3203-.2813-.8437-.5391-1.6406-.7735-2.3906zm-4.07808-14.9766c0 .5157-.01172 1.1368-.03516 1.8633-.02344.7266-.04687 1.5117-.07031 2.3555 0 .8437-.01172 1.7344-.03516 2.6719-.02343.914-.03515 1.8281-.03515 2.7422.63281-.0938 1.32422-.2461 2.07426-.4571.7734-.2109 1.4882-.5625 2.1445-1.0547.6562-.4922 1.207-1.1484 1.6523-1.9687s.668-1.875.668-3.1641c0-.9844-.1758-1.8164-.5273-2.4961-.3282-.7031-.7618-1.2656-1.3008-1.6875-.5391-.4453-1.1367-.7617-1.793-.9492-.6328-.2109-1.2656-.3164-1.89843-.3164-.11719 0-.23438 0-.35156 0-.11719 0-.2461.0117-.38672.0352-.07031.75-.10547 1.5586-.10547 2.4257zm16.59378 18.9844c-1.6407 0-2.9063-.5508-3.7969-1.6523-.8906-1.1016-1.3359-2.543-1.3359-4.3242 0-1.2422.1757-2.4024.5273-3.4805.375-1.1016.8672-2.0508 1.4766-2.8477.6093-.7968 1.3125-1.4179 2.1093-1.8632.8204-.4688 1.6758-.7032 2.5664-.7032.8672 0 1.6055.3164 2.2149.9492.6094.6094.9141 1.4883.9141 2.6368 0 .75-.1641 1.5-.4922 2.25-.3282.7265-.7618 1.3828-1.3008 1.9687-.5156.5625-1.0899 1.0195-1.7227 1.3711s-1.2422.5274-1.8281.5274c-.375 0-.6914-.0469-.9492-.1407-.2578-.0937-.4922-.2343-.7031-.4219.0703 1.336.3632 2.2735.8789 2.8126.5156.5156 1.1836.7734 2.0039.7734.5625 0 1.0547-.1172 1.4765-.3516.4453-.2344.8203-.5039 1.125-.8086s.5508-.6093.7383-.914c.1875-.3282.3164-.5742.3867-.7383.0703-.1406.1875-.2109.3516-.2109.1875 0 .2812.1406.2812.4218 0 .2578-.0937.6563-.2812 1.1953-.1641.5157-.4453 1.043-.8438 1.5821-.3984.5156-.914.9726-1.5468 1.3711-.6094.3984-1.3594.5976-2.25.5976zm1.6172-13.3594c-.1407 0-.4102.1524-.8086.4571-.375.2812-.7852.7031-1.2305 1.2656-.4219.5625-.8203 1.2422-1.1953 2.0391-.3516.7734-.5742 1.6523-.668 2.6367 1.4063-.3281 2.5195-.8438 3.3399-1.5469.8203-.7031 1.2304-1.7344 1.2304-3.0937 0-.6797-.082-1.1368-.2461-1.3711-.164-.2579-.3047-.3868-.4218-.3868zm10.8984 6.293c.5156.1875 1.0078.3633 1.4766.5274.4687.164.8789.3632 1.2304.5976.3516.2344.6328.5156.8438.8438.2109.3047.3164.6914.3164 1.1601 0 .5625-.1289 1.0899-.3867 1.582-.2344.4922-.586.9258-1.0547 1.3008-.4688.375-1.043.668-1.7227.8789-.6562.2344-1.3945.3516-2.2148.3516-.9141 0-1.6524-.0937-2.2149-.2813-.5625-.164-.9961-.3632-1.3008-.5976-.3046-.2344-.5039-.4688-.5976-.7031-.0938-.2344-.1406-.4219-.1406-.5625 0-.2813.0586-.586.1758-.9141.1171-.3516.3398-.7266.6679-1.125.1406-.1641.293-.3164.4571-.457.3281-.2813.6562-.4571.9843-.5274-.0469.5391.0117.9844.1758 1.336.1875.3281.4219.5859.7031.7734.3047.1875.6328.3164.9844.3867.375.0703.7266.1055 1.0547.1055s.6562-.0469.9844-.1406c.3515-.0938.6679-.211.9492-.3516.2812-.1641.5039-.3398.668-.5273.1875-.211.2812-.4336.2812-.668 0-.2578-.1055-.4688-.3164-.6328-.2109-.1641-.4805-.293-.8086-.3867-.3047-.1172-.6445-.1993-1.0195-.2461-.3516-.0703-.6914-.1407-1.0196-.211-.3281-.0703-.7734-.164-1.3359-.2812-.5391-.1406-1.0781-.3516-1.6172-.6328-.5156-.2813-.9726-.6563-1.3711-1.125-.375-.4688-.5625-1.0899-.5625-1.8633 0-.8906.2227-1.6641.668-2.3203.4687-.6797 1.0312-1.2422 1.6875-1.6875.6797-.4688 1.3945-.8203 2.1445-1.0547s1.418-.3516 2.0039-.3516c.3047 0 .6328.0469.9844.1406.3516.0704.6797.211.9844.4219.3047.1875.5508.4453.7383.7735.2109.3281.3164.75.3164 1.2656s-.0469.9375-.1407 1.2656c-.0703.3047-.1875.5508-.3515.7383-.1406.1641-.3164.2695-.5274.3164-.2109.0469-.457.0703-.7382.0703-.1875 0-.3633-.0234-.5274-.0703-.1406-.0469-.293-.0937-.457-.1406-.1641-.0469-.3164-.1289-.4571-.2461.2344-.2813.4102-.5508.5274-.8086.1406-.2578.2109-.5742.2109-.9492 0-.3282-.0937-.6211-.2812-.8789-.1641-.2579-.4453-.3868-.8438-.3868-.4218 0-.832.0821-1.2304.2461-.375.1641-.7149.3868-1.0196.668-.2812.2813-.5156.6094-.7031.9844-.1641.3515-.2461.7383-.2461 1.1601 0 .6329.2344 1.2305.7031 1.793.4922.5625 1.2539 1.043 2.2852 1.4414zm10.6172 7.0664c-1.6406 0-2.9063-.5508-3.7969-1.6523-.8906-1.1016-1.3359-2.543-1.3359-4.3242 0-1.2422.1758-2.4024.5273-3.4805.375-1.1016.8672-2.0508 1.4766-2.8477.6093-.7968 1.3125-1.4179 2.1093-1.8632.8204-.4688 1.6758-.7032 2.5665-.7032.8671 0 1.6054.3164 2.2148.9492.6094.6094.9141 1.4883.9141 2.6368 0 .75-.1641 1.5-.4922 2.25-.3282.7265-.7617 1.3828-1.3008 1.9687-.5156.5625-1.0898 1.0195-1.7227 1.3711-.6328.3516-1.2421.5274-1.8281.5274-.375 0-.6914-.0469-.9492-.1407-.2578-.0937-.4922-.2343-.7031-.4219.0703 1.336.3633 2.2735.8789 2.8126.5156.5156 1.1836.7734 2.0039.7734.5625 0 1.0547-.1172 1.4765-.3516.4454-.2344.8204-.5039 1.125-.8086.3047-.3047.5508-.6093.7383-.914.1875-.3282.3164-.5742.3867-.7383.0704-.1406.1875-.2109.3516-.2109.1875 0 .2813.1406.2813.4218 0 .2578-.0938.6563-.2813 1.1953-.1641.5157-.4453 1.043-.8437 1.5821-.3985.5156-.9141.9726-1.5469 1.3711-.6094.3984-1.3594.5976-2.25.5976zm1.6172-13.3594c-.1407 0-.4102.1524-.8086.4571-.375.2812-.7852.7031-1.2305 1.2656-.4219.5625-.8203 1.2422-1.1953 2.0391-.3516.7734-.5742 1.6523-.668 2.6367 1.4063-.3281 2.5196-.8438 3.3399-1.5469s1.2304-1.7344 1.2304-3.0937c0-.6797-.082-1.1368-.2461-1.3711-.164-.2579-.3046-.3868-.4218-.3868zm14.8711 2.1797c0 .3282-.0938.668-.2813 1.0196-.164.3281-.375.6445-.6328.9492s-.5508.5742-.8789.8086c-.3047.2109-.5977.3398-.8789.3867.1875-.7266.2461-1.2891.1758-1.6875s-.1875-.6914-.3516-.8789c-.1875-.2109-.4219-.3281-.7031-.3516-.4219 0-.8321.2461-1.2305.7383-.375.4688-.7031 1.0547-.9844 1.7578-.2812.6797-.5039 1.418-.6679 2.2149-.1641.7734-.2461 1.4765-.2461 2.1093-.0235.4454-.0117.8789.0351 1.3008.0235.3516.0586.7149.1055 1.0899.0703.375.1641.6679.2812.8789-.1406.1172-.375.2578-.7031.4218-.3047.1641-.6328.2696-.9843.3164-.3282.0469-.6329-.0117-.9141-.1757-.2578-.1641-.3985-.5157-.4219-1.0547-.0469-.5156-.082-1.0899-.1055-1.7227 0-.6562 0-1.3008 0-1.9336.0235-.6562.0469-1.3007.0704-1.9336.0234-.6328.0585-1.2187.1054-1.7578.0469-1.0312.0703-1.8281.0703-2.3906s-.0117-1.1016-.0351-1.6172c0-.0937.1523-.2226.457-.3867.3281-.1875.6797-.3516 1.0547-.4922.3984-.1406.7617-.2226 1.0898-.2461.3282-.0234.4922.0469.4922.2109 0 .2579-.0351.7735-.1054 1.5469-.0469.75-.1172 1.5352-.211 2.3555.1641-.4453.375-.9258.6328-1.4414.2813-.5156.5977-.9961.9493-1.4414.3515-.4453.75-.8086 1.1953-1.0899.4453-.3047.9375-.457 1.4765-.457.4219 0 .7617.1289 1.0196.3867.2812.2578.5039.5508.6679.8789.1641.3282.2813.6563.3516.9844s.1055.5625.1055.7031zm5.6601 8.9649c.211 0 .4922-.375.8438-1.125.3515-.75.6797-1.6524.9843-2.7071.3282-1.0546.586-2.1445.7735-3.2695.2109-1.125.2695-2.0742.1758-2.8476-.0469-.2579-.1172-.4688-.211-.6329-.0703-.164-.164-.3398-.2812-.5273.1406-.1875.3164-.3281.5273-.4219.211-.1172.4102-.1992.5977-.2461.2344-.0703.4687-.1172.7031-.1406.5625-.0234.9727.0703 1.2305.2813.1406.1406.2109.4687.2109.9843 0 .5157-.0586 1.125-.1758 1.8282-.0937.6796-.2343 1.4062-.4219 2.1796-.164.75-.3515 1.4415-.5624 2.0743-.211.6093-.4688 1.2773-.7735 2.0039-.3047.7031-.6211 1.3828-.9492 2.039-.3281.6328-.6563 1.1836-.9844 1.6524-.3281.4453-.6094.7148-.8437.8086-.4922.1875-.9844.2812-1.4766.2812-.4687 0-.7617-.0586-.8789-.1758-.0469-.0468-.1523-.2109-.3164-.4921-.1641-.2813-.3516-.6446-.5625-1.0899-.1875-.4453-.3984-.9609-.6328-1.5469-.211-.6093-.3985-1.2539-.5625-1.9336-.1641-.6796-.2813-1.4179-.3516-2.2148s-.1523-1.5703-.2461-2.3203c-.0703-.7735-.1758-1.4883-.3164-2.1445-.1406-.6563-.3515-1.1954-.6328-1.6172l1.6524-.668c.1406-.0703.3046-.1289.4921-.1758.1875-.0703.375-.0937.5625-.0703s.3516.1172.4922.2813c.1641.1406.2696.3984.3164.7734.0469.4219.0821.9258.1055 1.5117.0469.5859.082 1.1953.1055 1.8281.0468.6328.0937 1.2657.1406 1.8985.0469.6093.0937 1.1601.1406 1.6523.0469.5156.1055 1.0313.1758 1.5469.0938.5156.1875.9726.2812 1.3711.1172.3984.2227.7265.3165.9844.1171.2578.2343.3867.3515.3867zm7.6289-10.6172c0-.1406.1875-.293.5625-.457.375-.1641.7852-.293 1.2305-.3868.4687-.1171.8906-.1757 1.2656-.1757.3985-.0235.5977.0586.5977.246 0 .3516-.0235.8555-.0703 1.5118-.0469.6328-.1055 1.3125-.1758 2.039-.0703.7032-.1406 1.418-.211 2.1446-.0703.7031-.1171 1.3007-.1406 1.7929-.0469.5157-.0937 1.0782-.1406 1.6875-.0469.5157-.082 1.0899-.1055 1.7227-.0234.6328-.0234 1.2773 0 1.9336 0 .1172-.1172.2344-.3515.3515-.2344.1172-.4922.1993-.7735.2461-.2812.0703-.5508.1055-.8086.1055s-.3984-.0469-.4218-.1406c-.0469-.0938-.0938-.2578-.1407-.4922-.0468-.2344-.0937-.5625-.1406-.9844-.0469-.4453-.082-1.0078-.1055-1.6875-.0234-.7031-.0117-1.5469.0352-2.5312.0937-1.9453.1055-3.4453.0352-4.5-.0704-1.0782-.1172-1.8867-.1407-2.4258zm2.461-6.9961c.4687 0 .914.1406 1.3359.4219.4219.2812.6328.6562.6328 1.125 0 .3515-.0937.6914-.2812 1.0195-.1641.3281-.375.6211-.6328.8789-.2579.2578-.5508.4688-.879.6328-.3281.1406-.6328.211-.914.211-.375 0-.6797-.0586-.9141-.1758-.2344-.1407-.4219-.293-.5625-.4571-.1172-.1875-.1992-.3867-.2461-.5976-.0469-.211-.0703-.4102-.0703-.5977 0-.2343.0352-.4922.1055-.7734.0703-.3047.1992-.5742.3867-.8086.1875-.2578.4453-.4688.7734-.6328.3282-.1641.75-.2461 1.2657-.2461zm-.8789 3.2695c.1406 0 .2929-.0469.457-.1406.1875-.1172.3516-.2461.4922-.3867.164-.1406.2929-.293.3867-.457.1172-.1641.1758-.3047.1758-.4219 0-.1875-.0938-.2813-.2813-.2813-.1172 0-.2695.0469-.457.1406-.1641.0938-.3281.211-.4922.3516-.1641.1172-.3047.2578-.4219.4219-.0937.1406-.1406.2812-.1406.4219 0 .2343.0938.3515.2813.3515zm14.6601 14.3789c.0469.1641.1172.3164.2109.4571.0704.1171.1641.2343.2813.3515.1406.0938.3047.1524.4922.1758-.1641.3281-.3281.5508-.4922.668-.0937.0703-.1758.1172-.2461.1406-.2109.0703-.5273.1055-.9492.1055s-.832-.1289-1.2305-.3867c-.1406-.1172-.2695-.293-.3867-.5274-.1172-.1875-.2227-.4453-.3164-.7734-.0703-.3516-.1289-.7969-.1758-1.336-.3281.7032-.7031 1.2657-1.125 1.6875-.3984.3985-.7969.6914-1.1953.8789-.4453.2578-.9023.4102-1.3711.4571-.5859.0468-1.1484-.0469-1.6875-.2813-.5156-.2578-.9609-.6328-1.3359-1.125-.3516-.5156-.6211-1.1367-.8086-1.8633-.1875-.7265-.2461-1.5468-.1758-2.4609.0703-.9609.2578-1.8164.5625-2.5664s.668-1.418 1.0898-2.0039c.4219-.5859.8672-1.0781 1.336-1.4766.4687-.4219.914-.7617 1.3359-1.0195.4453-.2813.8203-.4805 1.125-.5977.3281-.1406.5391-.2226.6328-.2461.2578-.0703.4805-.0937.668-.0703.1875.0235.3516.1289.4922.3164.0469.0703.1054.1524.1758.2461.0468.0938.1054.2227.1757.3868.0704.1406.1289.3046.1758.4921-.5625.2579-1.0898.5508-1.582.8789-.4922.3047-.9492.6797-1.3711 1.125-.3984.4454-.75.9844-1.0547 1.6172s-.5391 1.4063-.7031 2.3203c-.2344 1.1485-.1758 2.0743.1758 2.7774.375.7031.8789.9961 1.5117.8789.375-.1172.7383-.3398 1.0898-.668.3047-.2812.6211-.7031.9493-1.2656.3515-.5625.6796-1.3359.9843-2.3203.1172-1.4063.211-2.5078.2813-3.3047.0937-.8203.1758-1.4414.2461-1.8633.0937-.4922.164-.8203.2109-.9844.0703-.1171.2109-.2226.4219-.3164.2109-.1171.4453-.2109.7031-.2812s.4922-.1055.7031-.1055c.211-.0234.3516-.0234.4219 0 .0469.0235.0703.3164.0703.8789 0 .5391-.0234 1.2305-.0703 2.0742-.0234.8204-.0586 1.7227-.1055 2.7071-.0468.9609-.0937 1.875-.1406 2.7422-.0234.8672-.0469 1.6289-.0703 2.2851 0 .6328.0234 1.0313.0703 1.1953z" fill="#0065fc"/></svg>